# xmcd CD database file
#
# Track frame offsets:
#	150
#	22417
#	45719
#	65658
#	86656
#	104313
#	128302
#	150158
#	167941
#	183687
#	206774
#
# Disc length: 3050 seconds
#
# Revision: 0
# Processed by: cddbd v1.5.2PL0 Copyright (c) Steve Scherf et al.
# Submitted via: CDex 1.51
#
DISCID=950be80b
DTITLE=Pachito Alonso y su Kini-Kini - Cantandole a la Vida
DYEAR=2004
DGENRE=Salsa
TTITLE0=01)Ya Llegamos
TTITLE1=02)Chiquita Bum Bum
TTITLE2=03)Hace Una Semana Que No Te Veo
TTITLE3=04)La Habana Me Queda Chiquida
TTITLE4=05)Tengo
TTITLE5=06)Buscando Una Novia
TTITLE6=07)Cantandole a la Vida
TTITLE7=08)Dame la Luz Maria
TTITLE8=09)Callejera
TTITLE9=10)Quiereme
TTITLE10=11)Sin Ti
EXTD=YEAR: 2004
EXTT0=
EXTT1=
EXTT2=
EXTT3=
EXTT4=
EXTT5=
EXTT6=
EXTT7=
EXTT8=
EXTT9=
EXTT10=
PLAYORDER=
